<?xml version="1.0" encoding="utf-8"?>

<!-- Uploaded to: SVG Repo, www.svgrepo.com, Generator: SVG Repo Mixer Tools -->
<svg fill="#000000" height="800px" width="800px" version="1.1" id="Icons" xmlns="http://www.w3.org/2000/svg" xmlns:xlink="http://www.w3.org/1999/xlink" 
	 viewBox="0 0 32 32" xml:space="preserve">
<g>
	<path d="M26,9c-2.2,0-4.1,1.2-5.2,3h-1.9c-0.4-1.4-1.5-2.5-2.9-2.9V5h13c0.6,0,1-0.4,1-1s-0.4-1-1-1H16c0-0.6-0.4-1-1-1s-1,0.4-1,1
		H1C0.4,3,0,3.4,0,4s0.4,1,1,1h13v4h-0.9c-2.6,0-5,0.7-7,2h2.5c2.5,0,4.5,2,4.5,4.5S11,20,8.5,20H0.2c0.1,0.8,0.3,1.6,0.8,2.2
		C1.9,23.4,3.1,24,4.5,24h2.7l-1.8,3H4.2c-1,0-1.9-0.6-2.3-1.4c-0.2-0.5-0.8-0.7-1.3-0.4c-0.5,0.2-0.7,0.8-0.4,1.3
		C0.9,28,2.5,29,4.2,29H23c0.6,0,1-0.4,1-1s-0.4-1-1-1h-3.5l-3.3-5c0.2-0.4,0.5-0.8,0.6-1.2c0.6-1.7,2.1-2.8,3.9-2.8h0.1
		c1.1,1.8,3,3,5.2,3c3.3,0,6-2.7,6-6S29.3,9,26,9z M17.1,27H7.8l1.8-3h2.8c0.9,0,1.7-0.2,2.4-0.6L17.1,27z M26,19
		c-1,0-1.9-0.4-2.6-1H26c1.7,0,3-1.3,3-3s-1.3-3-3-3h-2.6c0.7-0.6,1.7-1,2.6-1c2.2,0,4,1.8,4,4S28.2,19,26,19z"/>
	<path d="M11,15.5c0-1.4-1.1-2.5-2.5-2.5H3.6c-1.3,1.4-2.4,3.1-3,5h8C9.9,18,11,16.9,11,15.5z"/>
</g>
</svg>